<?xml version="1.0" encoding="UTF-8"?><svg
  id="a"
  xmlns="http://www.w3.org/2000/svg"
  viewBox="0 0 181.49 12"
  style="fill: currentColor"
>
  <path
    d="M0,1.34v-.27c0-.31.1-.56.3-.76s.45-.3.76-.3h.27c.31,0,.56.1.76.3.2.2.3.46.3.76v.27c0,.31.1.56.3.76s.45.3.76.3h.27c.31,0,.56-.1.76-.3s.3-.46.3-.76v-.27c0-.31.1-.56.3-.76s.46-.3.76-.3h13.18c.31,0,.56.1.76.3.2.2.3.46.3.76v2.67c0,.31-.1.56-.3.76-.2.2-.46.3-.76.3h-.27c-.31,0-.56-.1-.76-.3-.2-.2-.3-.46-.3-.76v-.27c0-.31-.1-.56-.3-.76-.2-.2-.46-.3-.76-.3H5.86c-.31,0-.56.1-.76.31-.2.21-.3.46-.3.75v7.47c0,.31-.1.56-.3.76s-.45.3-.76.3h-.27c-.31,0-.56-.1-.76-.3s-.3-.46-.3-.76V3.46c0-.29-.1-.54-.3-.75-.2-.21-.46-.31-.76-.31h-.27c-.31,0-.56-.1-.76-.3s-.3-.46-.3-.76Z"
  />
  <path
    d="M37.6.28c.19.19.28.41.28.68v.48c0,.26.09.49.28.67s.41.27.68.27h.48c.26,0,.49.1.68.29.19.19.28.42.28.69v2.88c0,.26-.09.49-.28.68s-.41.28-.68.28h-14.6c-.26,0-.49.09-.68.27s-.28.4-.28.67v.48c0,.28.09.51.28.7s.41.28.68.28h14.6c.26,0,.49.09.68.28.19.19.28.41.28.68v.48c0,.26-.09.49-.28.68s-.41.28-.68.28h-14.62c-.26,0-.49-.09-.67-.28s-.27-.41-.27-.68v-.48c0-.26-.09-.49-.28-.68-.19-.19-.41-.28-.68-.28h-.48c-.26,0-.49-.09-.68-.28s-.28-.42-.28-.7v-.48c0-.26.09-.49.28-.68s.41-.28.68-.28h.48c.26,0,.49-.09.68-.27.19-.18.28-.4.28-.67v-.48c0-.26-.09-.49-.28-.68s-.41-.28-.68-.28h-.48c-.26,0-.49-.09-.68-.28-.19-.19-.28-.41-.28-.68V.96c0-.26.09-.49.28-.68.19-.19.41-.28.68-.28h14.58c.28,0,.51.09.7.28ZM37.6,4.52c.19-.19.28-.41.28-.68v-.48c0-.28-.09-.51-.28-.69s-.42-.27-.7-.27h-12.18c-.26,0-.49.09-.68.27s-.28.41-.28.69v.48c0,.26.09.49.28.68.19.19.41.28.68.28h12.18c.28,0,.51-.09.7-.28Z"
  />
  <path
    d="M57.75,9.28c.2-.21.3-.46.3-.75v-.27c0-.31-.1-.56-.3-.76-.2-.2-.46-.3-.76-.3h-12c-.31,0-.56-.1-.76-.3-.2-.2-.3-.45-.3-.76v-.29c0-.31-.1-.56-.3-.75-.2-.19-.46-.29-.76-.29h-.27c-.31,0-.56-.1-.76-.3-.2-.2-.3-.46-.3-.76v-.27c0-.31.1-.56.3-.76s.45-.3.76-.3h.27c.31,0,.56-.1.76-.3.2-.2.3-.46.3-.76v-.27c0-.31.1-.56.3-.76s.45-.3.76-.3h14.39c.31,0,.56.1.76.29.2.19.3.44.3.75v.29c0,.31-.1.56-.3.76s-.45.3-.76.3h-14.39c-.31,0-.56.1-.76.3s-.3.46-.3.76v.27c0,.31.1.56.3.76.2.2.45.3.76.3h14.39c.31,0,.56.1.76.31.2.21.3.47.3.77v2.65c0,.31-.1.56-.31.76-.21.2-.47.3-.77.3h-.25c-.32,0-.58.1-.77.29-.2.19-.29.45-.29.77v.27c0,.31-.1.56-.3.76-.2.2-.46.3-.76.3h-14.42c-.31,0-.56-.1-.75-.3-.19-.2-.29-.46-.29-.76v-.27c0-.31.1-.56.29-.76.2-.2.45-.3.75-.3h14.44c.29,0,.54-.1.74-.31Z"
  />
  <path
    d="M62.01,11.69c-.2-.2-.3-.46-.3-.76V3.46c0-.31.1-.56.3-.76s.45-.3.76-.3h.27c.31,0,.56-.1.76-.3.2-.2.3-.46.3-.76v-.27c0-.31.1-.56.3-.76s.45-.3.76-.3h14.39c.31,0,.56.1.76.3s.3.46.3.76v7.47c0,.31-.1.56-.3.76-.2.2-.45.3-.76.3h-.27c-.31,0-.56.1-.76.3s-.3.46-.3.76v.27c0,.31-.1.56-.31.76-.21.2-.47.3-.77.3h-14.37c-.31,0-.56-.1-.76-.3ZM64.41,9.29c.2.2.45.3.76.3h12c.31,0,.56-.1.76-.3s.3-.45.3-.76V3.46c0-.31-.1-.56-.3-.76-.2-.2-.46-.3-.76-.3h-12c-.31,0-.56.1-.76.3s-.3.46-.3.76v5.07c0,.31.1.56.3.76Z"
  />
  <path
    d="M82.18.3c.2-.2.45-.3.76-.3h14.39c.31,0,.56.1.76.3.2.2.3.46.3.76v.19c0,.31.1.57.31.8.21.23.46.34.75.34h.27c.31,0,.56.09.76.27.2.18.3.42.3.71v7.55c0,.31-.1.56-.3.76s-.45.3-.76.3h-.27c-.31,0-.56-.1-.76-.3s-.3-.46-.3-.76V3.38c0-.29-.1-.53-.3-.71-.2-.18-.46-.27-.76-.27h-12c-.31,0-.56.09-.76.27-.2.18-.3.42-.3.71v7.55c0,.31-.1.56-.3.76-.2.2-.46.3-.76.3h-.27c-.31,0-.56-.1-.76-.3s-.3-.46-.3-.76V1.06c0-.31.1-.56.3-.76Z"
  />
  <path
    d="M104.73,11.71c-.19-.19-.28-.41-.28-.68v-.48c0-.26-.09-.49-.28-.67s-.41-.27-.68-.27h-.48c-.26,0-.49-.1-.68-.29-.19-.19-.28-.42-.28-.69v-2.88c0-.26.09-.49.28-.68s.41-.28.68-.28h14.6c.26,0,.49-.09.68-.27s.28-.4.28-.67v-.48c0-.28-.09-.51-.28-.7s-.41-.28-.68-.28h-14.6c-.26,0-.49-.09-.68-.28s-.28-.41-.28-.68v-.48c0-.26.09-.49.28-.68.19-.19.41-.28.68-.28h14.62c.26,0,.49.09.67.28.18.19.27.41.27.68v.48c0,.26.09.49.28.68s.41.28.68.28h.48c.26,0,.49.09.68.28s.28.42.28.7v.48c0,.26-.09.49-.28.68s-.41.28-.68.28h-.48c-.26,0-.49.09-.68.27-.19.18-.28.4-.28.67v.48c0,.26.09.49.28.68s.41.28.68.28h.48c.26,0,.49.09.68.28s.28.41.28.68v2.88c0,.26-.09.49-.28.68s-.41.28-.68.28h-14.58c-.28,0-.51-.09-.7-.28ZM104.73,7.48c-.19.19-.28.41-.28.68v.48c0,.28.09.51.28.69.19.18.42.27.7.27h12.18c.28,0,.51-.09.69-.28s.27-.41.27-.68v-.48c0-.26-.09-.49-.28-.68s-.41-.28-.68-.28h-12.18c-.28,0-.51.09-.7.28Z"
  />
  <path
    d="M122.53.3c.2-.2.45-.3.76-.3h14.39c.31,0,.56.1.76.3.2.2.3.46.3.76v.19c0,.31.1.57.31.8.21.23.46.34.75.34h.27c.31,0,.56.09.76.27.2.18.3.42.3.71v7.55c0,.31-.1.56-.3.76s-.45.3-.76.3h-.27c-.31,0-.56-.1-.76-.3s-.3-.46-.3-.76V3.38c0-.29-.1-.53-.3-.71-.2-.18-.46-.27-.76-.27h-12c-.31,0-.56.09-.76.27-.2.18-.3.42-.3.71v7.55c0,.31-.1.56-.3.76-.2.2-.46.3-.76.3h-.27c-.31,0-.56-.1-.76-.3s-.3-.46-.3-.76V1.06c0-.31.1-.56.3-.76Z"
  />
  <path
    d="M142.7.3c.2-.2.45-.3.76-.3h14.37c.31,0,.56.1.77.3.21.2.31.46.31.76v.27c0,.31.1.56.3.76s.45.3.76.3h.27c.31,0,.56.1.76.3s.3.46.3.76v.31c0,.31-.1.55-.3.74-.2.19-.45.28-.76.28h-.27c-.31,0-.56-.09-.76-.28-.2-.19-.3-.43-.3-.74v-.31c0-.31-.1-.56-.3-.76-.2-.2-.46-.3-.76-.3h-12c-.31,0-.56.1-.76.3s-.3.46-.3.76v5.07c0,.31.1.56.3.76.2.2.45.3.76.3h12c.31,0,.56-.1.76-.3s.3-.45.3-.76v-.31c0-.31.1-.55.3-.74.2-.19.45-.28.76-.28h.27c.31,0,.56.09.76.28.2.19.3.44.3.74v.31c0,.31-.1.56-.3.76-.2.2-.45.3-.76.3h-.27c-.31,0-.56.1-.76.3s-.3.46-.3.76v.27c0,.31-.1.56-.31.76-.21.2-.47.3-.77.3h-11.97c-.31,0-.56-.1-.76-.3s-.3-.46-.3-.76v-.27c0-.31-.1-.56-.3-.76-.2-.2-.46-.3-.76-.3h-.27c-.31,0-.56-.1-.76-.3-.2-.2-.3-.45-.3-.76V1.06c0-.31.1-.56.3-.76Z"
  />
  <path
    d="M178.81.28c.19.19.28.41.28.68v.48c0,.26.09.49.28.67s.41.27.68.27h.48c.26,0,.49.1.68.29.19.19.28.42.28.69v2.88c0,.26-.09.49-.28.68s-.41.28-.68.28h-14.6c-.26,0-.49.09-.68.27s-.28.4-.28.67v.48c0,.28.09.51.28.7s.41.28.68.28h14.6c.26,0,.49.09.68.28.19.19.28.41.28.68v.48c0,.26-.09.49-.28.68s-.41.28-.68.28h-14.62c-.26,0-.49-.09-.67-.28s-.27-.41-.27-.68v-.48c0-.26-.09-.49-.28-.68-.19-.19-.41-.28-.68-.28h-.48c-.26,0-.49-.09-.68-.28s-.28-.42-.28-.7v-.48c0-.26.09-.49.28-.68s.41-.28.68-.28h.48c.26,0,.49-.09.68-.27.19-.18.28-.4.28-.67v-.48c0-.26-.09-.49-.28-.68s-.41-.28-.68-.28h-.48c-.26,0-.49-.09-.68-.28-.19-.19-.28-.41-.28-.68V.96c0-.26.09-.49.28-.68.19-.19.41-.28.68-.28h14.58c.28,0,.51.09.7.28ZM178.81,4.52c.19-.19.28-.41.28-.68v-.48c0-.28-.09-.51-.28-.69s-.42-.27-.7-.27h-12.18c-.26,0-.49.09-.68.27s-.28.41-.28.69v.48c0,.26.09.49.28.68.19.19.41.28.68.28h12.18c.28,0,.51-.09.7-.28Z"
  />
</svg>
